<?xml version="1.0" encoding="UTF-8"?>
<svg width="150px" height="150px" viewBox="0 0 150 150" version="1.1" xmlns="http://www.w3.org/2000/svg" xmlns:xlink="http://www.w3.org/1999/xlink">
    <!-- Generator: Sketch 52.1 (67048) - http://www.bohemiancoding.com/sketch -->
    <title> snell_logo</title>
    <desc>Created with Sketch.</desc>
    <g id="Page-1" stroke="none" stroke-width="1" fill="none" fill-rule="evenodd">
        <g id="-snell_logo" fill="#FFFFFF">
            <path d="M74.9136126,-4.27460259e-15 C116.334555,-0.0471204188 149.951309,33.4929319 149.998429,74.9138743 C150.04555,116.334817 116.505497,149.952094 75.084555,150 C33.6636126,150.047906 0.0468586387,116.506283 -1.26196389e-15,75.0853403 C-0.0468586387,33.6643979 33.4929319,0.0479057592 74.9136126,-4.27460259e-15 Z M74.9204188,5.82513089 C113.124084,5.78167539 144.129843,36.7167539 144.173298,74.9204188 C144.216754,113.124084 113.281675,144.130628 75.078534,144.174084 C36.8753927,144.217539 5.86832461,113.282461 5.82486911,75.078534 C5.78141361,36.8746073 36.7164921,5.86937173 74.921466,5.82591623 L74.9204188,5.82513089 Z" id="Ellipse_3_copy_3"></path>
            <polygon id="Path" points="29.1929319 22.1465969 129.421204 125.904188 132.93822 122.387173"></polygon>
            <polygon id="Rectangle_1_copy_4" points="36.6434555 14.6947644 134.418325 116.093717 137.93534 112.576702"></polygon>
            <polygon id="Rectangle_1_copy_9" points="43.9971204 7.34109948 140.34267 107.208639 143.859686 103.691099"></polygon>
            <polygon id="Rectangle_1_copy_10" points="56.9764398 5.46806283 143.674607 95.7329843 147.191623 92.2159686"></polygon>
            <polygon id="Rectangle_1_copy_11" points="69.9599476 3.59109948 145.525654 82.7748691 149.04267 79.2578534"></polygon>
            <polygon id="Rectangle_1_copy_12" points="86.5591623 5.5026178 143.674607 66.1149215 147.191623 62.5979058"></polygon>
            <polygon id="Rectangle_1_copy_13" points="112.041885 16.4921466 138.121204 45.7531414 141.63822 42.2361257"></polygon>
            <polygon id="Rectangle_1_copy" points="23.5403141 27.7979058 20.0232984 31.3149215 123.774869 131.550524"></polygon>
            <polygon id="Rectangle_1_copy_2" points="16.1361257 35.2020942 12.6191099 38.7191099 116.42644 138.900524"></polygon>
            <polygon id="Rectangle_1_copy_3" points="9.65732984 43.5319372 6.14031414 47.0489529 103.451047 140.768063"></polygon>
            <polygon id="Rectangle_1_copy_5" points="6.88089005 55.5638743 3.36387435 59.0808901 92.3319372 144.482984"></polygon>
            <polygon id="Rectangle_1_copy_6" points="5.02984293 68.5212042 1.51282723 72.0382199 79.4036649 146.305236"></polygon>
            <polygon id="Rectangle_1_copy_7" points="5.02984293 83.3298429 1.51282723 86.8468586 64.3193717 146.210471"></polygon>
            <polyline id="Rectangle_1_copy_8" points="12.2489529 105.357592 8.63874346 108.900524 39.5287958 134.554974"></polyline>
        </g>
    </g>
</svg>