<svg xmlns="http://www.w3.org/2000/svg" xmlns:xlink="http://www.w3.org/1999/xlink" viewBox="0 0 98.035 98.035">
  <defs>
    <style>
      .cls-1 {
        fill: #3495fa;
      }

      .cls-2 {
        fill: #fff;
      }

      .cls-3 {
        filter: url(#Ellipse_6);
      }
    </style>
    <filter id="Ellipse_6" x="0" y="0" width="98.035" height="98.035" filterUnits="userSpaceOnUse">
      <feOffset dy="5" input="SourceAlpha"/>
      <feGaussianBlur stdDeviation="5" result="blur"/>
      <feFlood flood-color="#3495fa" flood-opacity="0.302"/>
      <feComposite operator="in" in2="blur"/>
      <feComposite in="SourceGraphic"/>
    </filter>
  </defs>
  <g id="SAFE_ICON" data-name="SAFE ICON" transform="translate(-138 -410)">
    <g class="cls-3" transform="matrix(1, 0, 0, 1, 138, 410)">
      <circle id="Ellipse_6-2" data-name="Ellipse 6" class="cls-1" cx="34.018" cy="34.018" r="34.018" transform="translate(15 10)"/>
    </g>
    <g id="Group_111" data-name="Group 111" transform="translate(131 2)">
      <path id="Path_567" data-name="Path 567" class="cls-2" d="M47.845,15.506v-.257a1.54,1.54,0,0,0-1.082-1.471c-.111-.034-13.374-3.42-13.8-3.42a1.537,1.537,0,0,0-.313.032c-.078.016-13.248,3.314-13.487,3.388a1.54,1.54,0,0,0-1.084,1.471v.264c.006,3.854.014,10.889-.007,14.7a14.61,14.61,0,0,0,4.275,10.309,28.823,28.823,0,0,0,9.625,6.566,2.315,2.315,0,0,0,.991.244,2.388,2.388,0,0,0,.954-.228,28.837,28.837,0,0,0,9.662-6.582,14.609,14.609,0,0,0,4.276-10.31C47.832,26.4,47.839,19.36,47.845,15.506ZM41.332,38.413a25.626,25.626,0,0,1-8.373,5.745,25.618,25.618,0,0,1-8.372-5.746A11.478,11.478,0,0,1,21.15,30.23c.019-3.529.014-9.806.008-13.784,2.848-.718,10.168-2.556,11.8-2.963,1.668.414,8.957,2.243,11.8,2.962-.005,3.979-.01,10.252.01,13.785A11.486,11.486,0,0,1,41.332,38.413Z" transform="translate(22.931 423.642)"/>
      <path id="Path_571" data-name="Path 571" class="cls-2" d="M4445.892,436.256l-12.75,2.969-.348,13.7,1.614,9,3.891,2.635,4.848,3.756,2.052.865,8.619-3.121,5.16-9.841.62-14.841-.359-2.415-3.133-1.164Z" transform="translate(-4390)"/>
      <path id="Path_570" data-name="Path 570" class="cls-1" d="M39.321,21.481l-7.979,9.5-4.5-4.052a1.541,1.541,0,1,0-2.061,2.29l5.686,5.118a1.541,1.541,0,0,0,1.03.4c.036,0,.071,0,.107,0a1.539,1.539,0,0,0,1.072-.546l9-10.717a1.54,1.54,0,1,0-2.357-1.982Z" transform="translate(22.931 422.642)"/>
    </g>
  </g>
</svg>
