<svg xmlns="http://www.w3.org/2000/svg" xmlns:xlink="http://www.w3.org/1999/xlink" viewBox="0 0 98.035 98.035">
  <defs>
    <style>
      .cls-1 {
        fill: #ff9345;
      }

      .cls-2 {
        fill: #fff;
      }

      .cls-3 {
        filter: url(#Ellipse_8);
      }
    </style>
    <filter id="Ellipse_8" x="0" y="0" width="98.035" height="98.035" filterUnits="userSpaceOnUse">
      <feOffset dy="5" input="SourceAlpha"/>
      <feGaussianBlur stdDeviation="5" result="blur"/>
      <feFlood flood-color="#ff9345" flood-opacity="0.302"/>
      <feComposite operator="in" in2="blur"/>
      <feComposite in="SourceGraphic"/>
    </filter>
  </defs>
  <g id="QUALITY" transform="translate(-138 -844)">
    <g class="cls-3" transform="matrix(1, 0, 0, 1, 138, 844)">
      <circle id="Ellipse_8-2" data-name="Ellipse 8" class="cls-1" cx="34.018" cy="34.018" r="34.018" transform="translate(15 10)"/>
    </g>
    <path id="Path_573" data-name="Path 573" class="cls-2" d="M38.142,18.206l-.718-.491a2.224,2.224,0,0,1-.869-2.455l.227-.831A2.259,2.259,0,0,0,34.968,11.6l-.869-.151a2.205,2.205,0,0,1-1.851-1.813L32.1,8.762a2.237,2.237,0,0,0-2.833-1.775l-.831.264a2.264,2.264,0,0,1-2.455-.831l-.529-.756a2.228,2.228,0,0,0-3.324-.34l-.642.6a2.222,2.222,0,0,1-2.607.3l-.756-.416a2.271,2.271,0,0,0-3.173,1.133l-.34.831a2.169,2.169,0,0,1-2.191,1.4l-.869-.038a2.211,2.211,0,0,0-2.342,2.38l.076.869a2.27,2.27,0,0,1-1.36,2.229l-.793.34a2.257,2.257,0,0,0-1.1,3.173l.453.756a2.222,2.222,0,0,1-.264,2.607l-.567.642a2.2,2.2,0,0,0,.416,3.324l.718.491a2.224,2.224,0,0,1,.869,2.455l-.34.869A2.259,2.259,0,0,0,9.13,32.108l.869.151a2.205,2.205,0,0,1,1.851,1.813l.151.869a2.237,2.237,0,0,0,2.833,1.775l.831-.264a2.264,2.264,0,0,1,2.455.831l.529.718a2.228,2.228,0,0,0,3.324.34l.642-.6a2.222,2.222,0,0,1,2.607-.3l.756.416a2.271,2.271,0,0,0,3.173-1.133l.34-.831a2.169,2.169,0,0,1,2.191-1.4l.869.038a2.211,2.211,0,0,0,2.342-2.38l-.038-.869a2.27,2.27,0,0,1,1.36-2.229l.793-.34a2.257,2.257,0,0,0,1.1-3.173l-.453-.756a2.222,2.222,0,0,1,.264-2.607l.567-.642A2.2,2.2,0,0,0,38.142,18.206ZM29.68,20.435l-3.513,2.871,1.058,4.344a.941.941,0,0,1-.907,1.171.831.831,0,0,1-.491-.151l-3.853-2.342L18.2,28.67a.831.831,0,0,1-.491.151A.941.941,0,0,1,16.8,27.65l1.1-4.344-3.475-2.871a.95.95,0,0,1,.567-1.662l4.458-.34,1.7-4.155a.97.97,0,0,1,.869-.6.914.914,0,0,1,.869.6l1.7,4.155,4.5.34A.951.951,0,0,1,29.68,20.435Z" transform="translate(164.919 866.167)"/>
  </g>
</svg>
