<?xml version="1.0" standalone="no"?>
<!DOCTYPE svg PUBLIC "-//W3C//DTD SVG 20010904//EN"
 "http://www.w3.org/TR/2001/REC-SVG-20010904/DTD/svg10.dtd">
<svg version="1.0" xmlns="http://www.w3.org/2000/svg"
 width="576.000000pt" height="576.000000pt" viewBox="0 0 576.000000 576.000000"
 preserveAspectRatio="xMidYMid meet">
<metadata>
Created by potrace 1.11, written by Peter Selinger 2001-2013
</metadata>
<g transform="translate(0.000000,576.000000) scale(0.100000,-0.100000)"
fill="#000000" stroke="none">
<path d="M2689 5745 c-2 -1 -40 -6 -84 -9 -87 -8 -115 -12 -190 -26 -27 -5
-64 -12 -82 -15 -18 -3 -83 -18 -145 -34 -340 -88 -668 -251 -982 -489 -103
-78 -125 -97 -229 -192 -550 -506 -872 -1113 -951 -1792 -24 -202 -15 -565 18
-743 19 -105 48 -245 56 -270 6 -16 19 -64 31 -105 19 -69 78 -237 99 -285 53
-119 118 -251 160 -327 188 -334 446 -637 720 -846 30 -23 60 -45 65 -50 106
-85 400 -249 593 -329 171 -71 467 -160 592 -178 25 -3 63 -10 85 -15 22 -5
67 -12 100 -15 33 -4 89 -11 125 -15 67 -8 536 -6 580 3 14 3 48 8 75 12 98
13 121 17 210 36 119 26 241 61 351 100 93 33 310 126 331 142 7 5 39 22 70
39 102 52 336 215 449 311 238 204 410 398 576 652 151 230 311 594 363 825 2
8 10 44 18 80 18 77 43 236 54 340 10 94 9 465 0 545 -5 33 -10 80 -13 105 -3
25 -7 56 -10 70 -2 14 -7 39 -9 55 -57 348 -212 753 -403 1058 -59 93 -168
250 -197 281 -5 6 -37 42 -70 81 -147 169 -342 342 -540 477 -174 119 -300
189 -540 298 -137 62 -398 142 -570 175 -44 8 -89 17 -100 19 -21 4 -87 12
-170 22 -56 6 -431 15 -436 9z m137 -392 c61 -65 126 -134 144 -153 18 -19 96
-102 174 -185 78 -82 170 -179 203 -215 98 -105 150 -160 284 -301 70 -74 146
-154 169 -179 88 -93 178 -190 316 -335 78 -82 156 -166 174 -185 18 -19 90
-96 160 -170 70 -74 142 -151 160 -170 18 -19 67 -71 109 -116 104 -110 349
-369 401 -424 142 -152 292 -311 338 -359 58 -61 57 -52 38 -176 -8 -53 -58
-260 -65 -267 -3 -4 -51 36 -106 89 -55 52 -180 172 -279 267 -98 94 -201 193
-230 219 -28 27 -96 92 -152 145 -155 149 -470 451 -529 507 -50 48 -363 347
-449 430 -23 22 -129 123 -235 225 -107 102 -219 210 -251 240 -32 30 -144
138 -251 240 -106 102 -212 203 -235 225 -36 35 -280 268 -453 433 -31 30 -93
89 -138 132 l-81 79 61 20 c153 49 348 90 509 107 34 3 65 8 67 10 9 8 44 -23
147 -133z m404 116 c163 -20 311 -53 489 -111 105 -34 130 -46 160 -78 56 -58
325 -343 454 -480 33 -36 125 -132 203 -215 78 -82 156 -166 174 -185 18 -19
90 -96 160 -170 70 -74 147 -155 170 -180 23 -25 97 -103 164 -173 230 -245
209 -214 245 -356 18 -69 34 -139 37 -156 3 -16 7 -37 9 -45 2 -8 7 -37 10
-65 3 -27 8 -61 10 -75 12 -67 16 -120 9 -120 -4 0 -43 35 -88 79 -45 43 -106
102 -136 131 -30 28 -129 123 -220 210 -91 87 -190 182 -220 211 -30 28 -138
132 -240 229 -102 98 -208 199 -236 226 -29 27 -129 123 -224 214 -94 91 -198
190 -230 220 -32 30 -135 129 -230 220 -95 91 -198 190 -230 220 -32 30 -145
139 -252 242 -107 103 -205 196 -219 208 l-24 21 85 -6 c47 -3 123 -10 170
-16z m-1326 -233 c41 -44 267 -283 341 -361 22 -23 95 -100 161 -171 67 -71
145 -154 174 -184 29 -30 102 -108 164 -174 61 -65 131 -140 156 -166 25 -26
97 -103 162 -171 141 -151 184 -196 346 -368 70 -73 142 -150 161 -170 18 -20
97 -103 175 -186 77 -82 154 -163 169 -179 41 -44 247 -262 304 -322 41 -44
114 -122 332 -353 24 -25 100 -106 170 -180 134 -143 155 -164 270 -287 41
-44 108 -115 150 -159 42 -44 86 -92 99 -106 l23 -27 -42 -78 c-24 -44 -58
-103 -77 -133 l-34 -53 -42 40 c-22 22 -63 61 -91 87 -27 26 -130 124 -229
219 -98 94 -199 191 -225 215 -25 24 -129 123 -229 220 -101 97 -207 198 -235
225 -29 27 -135 128 -237 226 -102 98 -210 201 -240 229 -48 46 -195 187 -530
508 -47 45 -114 109 -150 143 -36 34 -144 137 -240 230 -96 92 -203 194 -237
226 -34 33 -134 129 -223 214 -89 85 -188 180 -220 210 -32 30 -140 134 -241
231 -101 97 -229 219 -284 272 l-99 95 109 72 c89 58 374 210 394 210 2 0 23
-20 45 -44z m-642 -378 c40 -43 273 -291 318 -338 35 -36 230 -244 330 -350
28 -30 84 -89 123 -130 180 -191 241 -255 362 -384 72 -76 157 -167 190 -201
33 -35 106 -112 161 -172 56 -59 125 -133 154 -163 29 -30 107 -113 174 -184
66 -71 137 -146 156 -166 19 -20 91 -97 160 -170 69 -73 148 -156 175 -185 54
-57 263 -279 315 -335 31 -33 81 -86 270 -286 139 -146 355 -376 400 -424 23
-25 70 -74 104 -110 34 -36 90 -95 124 -131 l62 -66 -82 -83 c-45 -45 -107
-103 -136 -128 l-54 -46 -112 115 c-61 64 -184 192 -272 285 -89 93 -190 198
-224 234 -34 36 -137 143 -229 239 -91 96 -188 197 -216 226 -65 67 -409 426
-466 487 -24 25 -123 128 -219 229 -96 100 -195 203 -220 229 -25 26 -124 130
-221 231 -97 101 -196 205 -220 230 -38 40 -323 338 -429 448 -84 88 -423 441
-470 491 -29 30 -116 122 -194 203 -77 81 -142 151 -144 155 -5 15 270 282
291 282 5 0 23 -15 39 -32z m-458 -731 c71 -67 143 -135 161 -152 61 -59 311
-294 350 -330 22 -21 103 -97 180 -170 77 -73 156 -147 175 -165 19 -17 69
-64 110 -103 252 -239 389 -369 408 -386 13 -10 90 -83 172 -161 82 -78 158
-150 169 -159 10 -9 86 -80 167 -158 82 -77 169 -160 194 -183 49 -45 300
-283 361 -340 20 -19 92 -87 160 -152 146 -137 181 -170 359 -338 74 -70 151
-142 170 -160 41 -38 300 -282 414 -391 l80 -77 -101 -66 c-110 -72 -360 -206
-385 -206 -13 0 -83 71 -392 394 -87 91 -248 259 -452 472 -100 104 -201 209
-224 234 -23 25 -124 130 -224 234 -99 104 -201 210 -226 236 -44 46 -315 330
-434 454 -32 33 -102 106 -155 161 -53 56 -184 193 -291 305 -107 112 -215
225 -240 251 -25 25 -117 122 -205 214 -88 92 -187 195 -220 230 -33 34 -127
132 -209 218 -82 86 -151 158 -153 161 -6 6 38 96 96 194 23 41 46 71 49 67 4
-4 65 -62 136 -128z m-360 -647 c176 -166 477 -450 626 -590 56 -53 311 -293
405 -382 38 -36 90 -85 115 -108 25 -23 104 -97 175 -165 72 -68 153 -144 180
-170 52 -48 313 -295 375 -353 19 -19 87 -83 150 -142 63 -60 133 -125 156
-147 77 -73 319 -301 364 -343 25 -23 104 -97 175 -165 72 -68 151 -142 176
-166 26 -24 105 -99 175 -166 71 -66 153 -143 182 -170 28 -27 52 -51 52 -55
0 -17 -284 -93 -425 -113 -22 -4 -47 -8 -55 -10 -8 -2 -51 -7 -95 -10 l-80 -7
-150 158 c-82 87 -198 208 -256 268 -59 61 -126 131 -149 156 -24 25 -127 132
-229 239 -102 107 -204 213 -226 236 -22 23 -116 122 -210 220 -93 98 -188
197 -210 220 -127 133 -409 427 -460 480 -54 56 -287 300 -426 445 -28 30
-130 136 -225 235 -94 99 -197 206 -227 238 l-54 58 14 87 c13 86 35 192 54
265 12 45 11 45 103 -43z m-47 -987 c65 -61 136 -128 159 -150 22 -21 106 -99
185 -174 79 -75 162 -153 184 -174 22 -20 99 -92 170 -160 72 -67 146 -137
166 -156 20 -19 98 -92 174 -164 76 -71 157 -148 180 -170 23 -22 109 -103
191 -180 81 -77 160 -151 175 -165 15 -14 87 -82 160 -151 74 -69 150 -141
170 -160 151 -140 308 -290 398 -377 l106 -102 -80 5 c-81 5 -174 15 -210 21
-10 2 -37 6 -60 9 -94 14 -279 60 -405 101 l-135 45 -68 72 c-38 40 -149 155
-247 257 -97 102 -197 206 -221 231 -24 26 -121 127 -215 225 -95 99 -200 208
-234 244 -168 175 -412 430 -469 489 -35 36 -69 80 -76 96 -12 28 -60 189 -71
240 -22 95 -41 207 -50 287 -3 29 -7 59 -10 66 -8 25 14 8 133 -105z"/>
</g>
</svg>
